<svg width="22" height="18" viewBox="0 0 22 18" fill="none" xmlns="http://www.w3.org/2000/svg">
<path d="M20.9102 15.4971C21.5121 15.4972 22 15.9893 22 16.5967C22 17.2041 21.5121 17.6962 20.9102 17.6963H1.08984C0.487917 17.6962 0 17.2041 0 16.5967C2.4321e-05 15.9893 0.487932 15.4972 1.08984 15.4971H20.9102ZM20.9102 7.74805C21.5121 7.74818 22 8.2412 22 8.84863C21.9999 9.45594 21.512 9.94811 20.9102 9.94824H1.08984C0.488006 9.94811 0.000144691 9.45594 0 8.84863C0 8.2412 0.487917 7.74818 1.08984 7.74805H20.9102ZM20.9102 0C21.512 0.000134132 21.9998 0.492358 22 1.09961C22 1.70704 21.5121 2.20006 20.9102 2.2002H1.08984C0.487917 2.20006 0 1.70704 0 1.09961C0.000209138 0.492359 0.488046 0.000134262 1.08984 0H20.9102Z" fill="#3A4C66"/>
</svg>
